<svg id="Layer_3" data-name="Layer 3" xmlns="http://www.w3.org/2000/svg" viewBox="0 0 650 120"><defs><style>.cls-1{fill:#096;}.cls-2,.cls-3{fill:#fff;}.cls-3{opacity:0.8;}</style></defs><title>black</title><g id="logo"><path d="M138.31,11.25h47.48v14h-16V109H154.37V25.22H138.31Z"/><path d="M207.86,109H192.5V11.25h15.36V53.16h17.46V11.25H241V109H225.32V67.12H207.86Z"/><path d="M267.49,52.46h21.09v14H267.49V95.05H294v14h-41.9V11.25H294v14H267.49Z"/><path d="M303.53,11.25h15.36v83.8h25.27v14H303.53Z"/><path d="M366.23,52.46h21.09v14H366.23V95.05h26.53v14H350.87V11.25h41.89v14H366.23Z"/><path d="M402.26,11.25h24.3c15.36,0,22.91,8.52,22.91,24.17V84.86c0,15.64-7.55,24.16-22.91,24.16h-24.3Zm15.36,14V95.05h8.67c4.88,0,7.81-2.51,7.81-9.49V34.72c0-7-2.93-9.5-7.81-9.5Z"/><path d="M482.29,54.56h21.5v31c0,15.64-7.82,24.58-22.9,24.58S458,101.2,458,85.56V34.72c0-15.64,7.82-24.58,22.91-24.58s22.9,8.94,22.9,24.58v9.5H489.26V33.74c0-7-3.07-9.63-8-9.63s-7.95,2.65-7.95,9.63v52.8c0,7,3.07,9.5,7.95,9.5s8-2.52,8-9.5v-18h-7Z"/><path d="M529.07,52.46h21.09v14H529.07V95.05H555.6v14H513.71V11.25H555.6v14H529.07Z"/><path d="M597.22,109c-.83-2.51-1.4-4-1.4-12V81.64c0-9.07-3.06-12.42-10.05-12.42h-5.31V109H565.1V11.25h23.19c15.92,0,22.75,7.41,22.75,22.49v7.68c0,10.06-3.2,16.62-10,19.84,7.68,3.21,10.19,10.62,10.19,20.81V97.15c0,4.76.15,8.24,1.68,11.87Zm-16.76-83.8v30h6c5.73,0,9.21-2.51,9.21-10.33V35.28c0-7-2.37-10.06-7.82-10.06Z"/><path d="M636.05,94.22V109H621.24V94.22Z"/></g><g id="full_icon" data-name="full icon"><rect class="cls-1" x="8.5" y="10" width="100" height="100" rx="0.01" ry="0.01"/><g id="icon"><rect class="cls-2" x="21" y="28.32" width="16" height="15.84"/><rect class="cls-2" x="41" y="28.32" width="16" height="15.84"/><rect class="cls-2" x="61" y="28.32" width="16" height="15.84"/><rect class="cls-2" x="41" y="48.12" width="16" height="42.57"/><rect class="cls-3" x="61" y="48.12" width="16" height="42.57"/><rect class="cls-3" x="81" y="74.85" width="16" height="15.84"/></g></g></svg>